<svg id="visual" viewBox="0 0 960 540" width="960" height="540" xmlns="http://www.w3.org/2000/svg" xmlns:xlink="http://www.w3.org/1999/xlink" version="1.1"><path d="M0 384L32 377.3C64 370.7 128 357.3 192 343.3C256 329.3 320 314.7 384 300.7C448 286.7 512 273.3 576 276.2C640 279 704 298 768 300.3C832 302.7 896 288.3 928 281.2L960 274L960 541L928 541C896 541 832 541 768 541C704 541 640 541 576 541C512 541 448 541 384 541C320 541 256 541 192 541C128 541 64 541 32 541L0 541Z" fill="#FA7268"></path></svg>